<?xml version="1.0" encoding="UTF-8" standalone="no"?>
<!DOCTYPE svg PUBLIC "-//W3C//DTD SVG 1.1//EN" "http://www.w3.org/Graphics/SVG/1.1/DTD/svg11.dtd">
<svg width="100%" height="100%" viewBox="0 0 512 512" version="1.1" xmlns="http://www.w3.org/2000/svg" xmlns:xlink="http://www.w3.org/1999/xlink" xml:space="preserve" xmlns:serif="http://www.serif.com/" style="fill-rule:evenodd;clip-rule:evenodd;stroke-linejoin:round;stroke-miterlimit:2;">
    <path d="M288.048,160.072c0,11.783 -9.549,21.332 -21.331,21.332c-11.779,0 -21.328,-9.549 -21.328,-21.332c0,-11.779 9.549,-21.328 21.328,-21.328c11.782,0 21.331,9.549 21.331,21.328Z" style="fill:#fff;fill-rule:nonzero;"/>
    <path d="M96.088,160.072c0,11.783 -9.549,21.332 -21.331,21.332c-11.779,0 -21.328,-9.549 -21.328,-21.332c0,-11.779 9.549,-21.328 21.328,-21.328c11.782,0 21.331,9.549 21.331,21.328Z" style="fill:#fff;fill-rule:nonzero;"/>
    <path d="M74.757,138.744c-11.779,0 -21.328,9.549 -21.328,21.328c0,11.783 9.549,21.332 21.328,21.332c11.782,0 21.331,-9.549 21.331,-21.332c-0.035,-11.763 -9.564,-21.292 -21.331,-21.328Zm191.96,0c-11.779,0 -21.328,9.549 -21.328,21.328c0,11.783 9.549,21.332 21.328,21.332c11.782,0 21.331,-9.549 21.331,-21.332c-0.035,-11.763 -9.564,-21.292 -21.331,-21.328Zm-255.947,-42.659l319.933,0l0,405.252l-319.933,0l0,-405.252Z" style="fill:#e0daeb;fill-rule:nonzero;"/>
    <path d="M501.335,245.39l0,191.96c-0.035,11.763 -9.564,21.292 -21.327,21.328l-191.96,0c-11.767,-0.036 -21.296,-9.565 -21.331,-21.328l0,-31.993l-63.987,0l63.987,-63.987l0,-95.98c0.035,-11.767 9.564,-21.296 21.331,-21.331l191.96,0c11.763,0.035 21.292,9.564 21.327,21.331Z" style="fill:#fff;fill-rule:nonzero;"/>
    <g>
        <path d="M480.008,213.397l-191.96,0c-17.672,0 -31.993,14.321 -31.993,31.993l0,91.563l-60.863,60.862c-3.05,3.05 -3.96,7.635 -2.312,11.623c1.652,3.983 5.538,6.581 9.85,6.581l53.325,0l0,21.331c0,17.668 14.321,31.993 31.993,31.993l191.96,0c17.668,0 31.993,-14.325 31.993,-31.993l0,-191.96c0,-17.672 -14.325,-31.993 -31.993,-31.993Zm10.662,223.953c0,5.889 -4.773,10.662 -10.662,10.662l-191.96,0c-5.889,0 -10.666,-4.773 -10.666,-10.662l0,-31.993c0,-5.89 -4.776,-10.666 -10.665,-10.666l-38.243,0l45.784,-45.783c1.999,-2 3.124,-4.71 3.124,-7.538l0,-95.98c0,-5.889 4.777,-10.666 10.666,-10.666l191.96,0c5.889,0 10.662,4.777 10.662,10.666l0,191.96Z" style="fill:#8058d9;fill-rule:nonzero;"/>
        <path d="M21.436,106.751l42.659,0l0,23.292c-14.692,5.194 -23.503,20.215 -20.871,35.575c2.636,15.356 15.954,26.58 31.533,26.58c15.582,0 28.9,-11.224 31.532,-26.58c2.636,-15.36 -6.174,-30.381 -20.867,-35.575l0,-23.292l170.633,0l0,23.292c-14.693,5.194 -23.503,20.215 -20.871,35.575c2.636,15.356 15.954,26.58 31.533,26.58c15.582,0 28.9,-11.224 31.532,-26.58c2.636,-15.36 -6.175,-30.381 -20.867,-35.575l0,-23.292l42.659,0l0,85.314l21.328,0l0,-95.98c0,-5.889 -4.776,-10.661 -10.666,-10.661l-55.453,0c-10.092,-49.705 -53.794,-85.424 -104.513,-85.424c-50.716,0 -94.418,35.719 -104.51,85.424l-55.457,0c-5.889,0 -10.662,4.772 -10.662,10.661l0,405.252c0,5.889 4.773,10.662 10.662,10.662l319.933,0c5.89,0 10.666,-4.773 10.666,-10.662l0,-10.666l-319.933,0l0,-383.92Zm53.321,63.987c-5.89,0 -10.662,-4.777 -10.662,-10.666c0,-5.889 4.772,-10.662 10.662,-10.662c5.889,0 10.665,4.773 10.665,10.662c0,5.889 -4.776,10.666 -10.665,10.666Zm191.96,0c-5.89,0 -10.662,-4.777 -10.662,-10.666c0,-5.889 4.772,-10.662 10.662,-10.662c5.889,0 10.665,4.773 10.665,10.662c0,5.889 -4.776,10.666 -10.665,10.666Zm-95.98,-149.301c38.859,0.074 72.77,26.369 82.514,63.987l-165.025,0c9.745,-37.618 43.655,-63.913 82.511,-63.987Z" style="fill:#8058d9;fill-rule:nonzero;"/>
        <path d="M373.362,309.377l21.328,0c5.889,0 10.666,4.772 10.666,10.662l21.327,0c0,-17.669 -14.321,-31.994 -31.993,-31.994l0,-10.662l-21.328,0l0,10.662c-17.668,0 -31.993,14.325 -31.993,31.994c0,17.672 14.325,31.993 31.993,31.993l21.328,0c5.889,0 10.666,4.776 10.666,10.666c0,5.889 -4.777,10.665 -10.666,10.665l-21.328,0c-5.889,0 -10.666,-4.776 -10.666,-10.665l-21.327,0c0,17.668 14.325,31.993 31.993,31.993l0,10.666l21.328,0l0,-10.666c17.672,0 31.993,-14.325 31.993,-31.993c0,-17.668 -14.321,-31.994 -31.993,-31.994l-21.328,0c-5.889,0 -10.666,-4.776 -10.666,-10.665c0,-5.89 4.777,-10.662 10.666,-10.662Z" style="fill:#8058d9;fill-rule:nonzero;"/>
        <path d="M42.763,437.35c0,17.668 14.325,31.993 31.994,31.993l21.331,0l0,-21.331l-21.331,0c-5.89,0 -10.662,-4.773 -10.662,-10.662l0,-21.331l-21.332,0l0,21.331Z" style="fill:#8058d9;fill-rule:nonzero;"/>
        <rect x="42.763" y="373.363" width="21.331" height="21.328" style="fill:#8058d9;"/>
        <rect x="298.71" y="256.052" width="21.331" height="21.331" style="fill:#8058d9;"/>
        <rect x="448.015" y="256.052" width="21.328" height="21.331" style="fill:#8058d9;"/>
        <rect x="448.015" y="405.357" width="21.328" height="21.328" style="fill:#8058d9;"/>
        <rect x="298.71" y="405.357" width="21.331" height="21.328" style="fill:#8058d9;"/>
    </g>
</svg>
