<?xml version="1.0" encoding="UTF-8" standalone="no"?>
<!DOCTYPE svg PUBLIC "-//W3C//DTD SVG 1.1//EN" "http://www.w3.org/Graphics/SVG/1.1/DTD/svg11.dtd">
<svg width="100%" height="100%" viewBox="0 0 512 512" version="1.1" xmlns="http://www.w3.org/2000/svg" xmlns:xlink="http://www.w3.org/1999/xlink" xml:space="preserve" xmlns:serif="http://www.serif.com/" style="fill-rule:evenodd;clip-rule:evenodd;stroke-linejoin:round;stroke-miterlimit:2;">
    <path d="M330.668,437.332l170.664,0c0,35.348 -28.652,64 -64,64l-362.664,0c-35.348,0 -64,-28.652 -64,-64l170.664,0l0,21.336l149.336,0l0,-21.336Z" style="fill:#e0daeb;fill-rule:nonzero;"/>
    <path d="M469.332,160l0,277.332l-138.664,0l0,21.336l-149.336,0l0,-21.336l-138.664,0l0,-277.332c0.035,-11.766 9.566,-21.297 21.332,-21.332l384,0c11.766,0.035 21.297,9.566 21.332,21.332Zm-42.664,234.668l0,-213.336l-341.336,0l0,213.336l341.336,0Z" style="fill:#fff;fill-rule:nonzero;"/>
    <rect x="85.332" y="181.332" width="341.336" height="213.336" style="fill:#e0daeb;"/>
    <path d="M362.668,288c0,11.781 -9.551,21.332 -21.336,21.332c-11.781,0 -21.332,-9.551 -21.332,-21.332c0,-11.781 9.551,-21.332 21.332,-21.332c11.785,0 21.336,9.551 21.336,21.332Z" style="fill:#fff;fill-rule:nonzero;"/>
    <path d="M202.668,288c0,11.781 -9.551,21.332 -21.336,21.332c-11.781,0 -21.332,-9.551 -21.332,-21.332c0,-11.781 9.551,-21.332 21.332,-21.332c11.785,0 21.336,9.551 21.336,21.332Z" style="fill:#fff;fill-rule:nonzero;"/>
    <path d="M384,53.332l-21.332,128l-202.668,0l-6.293,0.961l-19.199,-128.32l4.16,-0.641l245.332,0Z" style="fill:#fff;fill-rule:nonzero;"/>
    <g>
        <path d="M501.332,426.668l-21.332,0l0,-266.668c0,-17.672 -14.328,-32 -32,-32l-42.668,0l0,21.332l42.668,0c5.891,0 10.668,4.777 10.668,10.668l0,266.668l-128,0c-5.891,0 -10.668,4.773 -10.668,10.664l0,10.668l-128,0l0,-10.668c0,-5.891 -4.777,-10.664 -10.668,-10.664l-128,0l0,-266.668c0,-5.891 4.777,-10.668 10.668,-10.668l42.668,0l0,-21.332l-42.668,0c-17.672,0 -32,14.328 -32,32l0,266.668l-21.332,0c-5.891,0 -10.668,4.773 -10.668,10.664c0.047,41.219 33.449,74.621 74.668,74.668l362.664,0c41.219,-0.047 74.621,-33.449 74.668,-74.668c0,-5.891 -4.777,-10.664 -10.668,-10.664Zm-64,64l-362.664,0c-25.336,-0.027 -47.168,-17.852 -52.27,-42.668l148.27,0l0,10.668c0,5.891 4.773,10.664 10.664,10.664l149.336,0c5.891,0 10.664,-4.773 10.664,-10.664l0,-10.668l148.27,0c-5.102,24.816 -26.934,42.641 -52.27,42.668Z" style="fill:#8058d9;fill-rule:nonzero;"/>
        <path d="M74.668,181.332l0,192c0,17.676 14.324,32 32,32l298.664,0c17.676,0 32,-14.324 32,-32l0,-192l-21.332,0l0,192c0,5.891 -4.777,10.668 -10.668,10.668l-298.664,0c-5.891,0 -10.668,-4.777 -10.668,-10.668l0,-192l-21.332,0Z" style="fill:#8058d9;fill-rule:nonzero;"/>
        <path d="M149.449,225.59c0.789,5.219 5.274,9.078 10.551,9.078l202.668,0l0,-21.336l-193.496,0l-3.199,-21.332l196.695,0c5.211,0 9.656,-3.766 10.516,-8.906l21.332,-128c0.519,-3.094 -0.352,-6.258 -2.375,-8.653c-2.028,-2.394 -5.004,-3.773 -8.141,-3.773l-240.414,0l-5.035,-33.578c-0.781,-5.227 -5.27,-9.09 -10.551,-9.09l-42.668,0l0,21.332l33.484,0l30.633,204.258Zm221.953,-161.59l-17.769,106.668l-190.848,0l-16,-106.668l224.617,0Z" style="fill:#8058d9;fill-rule:nonzero;"/>
        <path d="M213.332,288c0,-17.672 -14.324,-32 -32,-32c-17.672,0 -32,14.328 -32,32c0,17.672 14.328,32 32,32c17.676,0 32,-14.328 32,-32Zm-42.664,0c0,-5.891 4.773,-10.668 10.664,-10.668c5.891,0 10.668,4.777 10.668,10.668c0,5.891 -4.777,10.668 -10.668,10.668c-5.891,0 -10.664,-4.777 -10.664,-10.668Z" style="fill:#8058d9;fill-rule:nonzero;"/>
        <path d="M373.332,288c0,-17.672 -14.324,-32 -32,-32c-17.672,0 -32,14.328 -32,32c0,17.672 14.328,32 32,32c17.676,0 32,-14.328 32,-32Zm-42.664,0c0,-5.891 4.773,-10.668 10.664,-10.668c5.891,0 10.668,4.777 10.668,10.668c0,5.891 -4.777,10.668 -10.668,10.668c-5.891,0 -10.664,-4.777 -10.664,-10.668Z" style="fill:#8058d9;fill-rule:nonzero;"/>
    </g>
</svg>
