<?xml version="1.0" encoding="UTF-8" standalone="no"?>
<!DOCTYPE svg PUBLIC "-//W3C//DTD SVG 1.1//EN" "http://www.w3.org/Graphics/SVG/1.1/DTD/svg11.dtd">
<svg width="100%" height="100%" viewBox="0 0 512 512" version="1.1" xmlns="http://www.w3.org/2000/svg" xmlns:xlink="http://www.w3.org/1999/xlink" xml:space="preserve" xmlns:serif="http://www.serif.com/" style="fill-rule:evenodd;clip-rule:evenodd;stroke-linejoin:round;stroke-miterlimit:2;">
    <path d="M330.668,416l0,42.668c0,23.562 -19.106,42.664 -42.668,42.664l-234.668,0c-23.562,0 -42.664,-19.102 -42.664,-42.664l0,-42.668l320,0Z" style="fill:#e0daeb;fill-rule:nonzero;"/>
    <path d="M330.668,53.332l0,42.668l-320,0l0,-42.668c0,-23.562 19.102,-42.664 42.664,-42.664l234.668,0c23.563,0 42.668,19.102 42.668,42.664Z" style="fill:#e0daeb;fill-rule:nonzero;"/>
    <rect x="10.668" y="96" width="320" height="320" style="fill:#fff;fill-rule:nonzero;"/>
    <path d="M480,384c0,11.781 -9.551,21.332 -21.332,21.332c-11.785,0 -21.336,-9.551 -21.336,-21.332c0,-11.781 9.551,-21.332 21.336,-21.332c11.781,0 21.332,9.551 21.332,21.332Z" style="fill:#fff;fill-rule:nonzero;"/>
    <path d="M320,384c0,11.781 -9.551,21.332 -21.332,21.332c-11.785,0 -21.336,-9.551 -21.336,-21.332c0,-11.781 9.551,-21.332 21.336,-21.332c11.781,0 21.332,9.551 21.332,21.332Z" style="fill:#fff;fill-rule:nonzero;"/>
    <path d="M501.332,149.332l-21.332,128l-209.066,0l-19.2,-128l249.598,0Z" style="fill:#e0daeb;fill-rule:nonzero;"/>
    <g>
        <path d="M255.883,105.09c-0.781,-5.227 -5.27,-9.09 -10.551,-9.09l-42.664,0l0,21.332l33.48,0l30.637,204.246c0.781,5.223 5.266,9.09 10.547,9.09l202.668,0l0,-21.336l-193.484,0l-3.2,-21.332l196.684,0c5.211,0 9.656,-3.766 10.516,-8.906l21.336,-128c0.515,-3.094 -0.352,-6.258 -2.379,-8.653c-2.028,-2.394 -5.004,-3.773 -8.141,-3.773l-240.414,0l-5.035,-33.578Zm232.851,54.91l-17.769,106.668l-190.848,0l-16,-106.668l224.617,0Z" style="fill:#8058d9;fill-rule:nonzero;"/>
        <path d="M266.668,384c0,17.672 14.324,32 32,32c17.672,0 32,-14.328 32,-32c0,-17.672 -14.328,-32 -32,-32c-17.676,0 -32,14.328 -32,32Zm42.664,0c0,5.891 -4.773,10.668 -10.664,10.668c-5.891,0 -10.668,-4.777 -10.668,-10.668c0,-5.891 4.777,-10.668 10.668,-10.668c5.891,0 10.664,4.777 10.664,10.668Z" style="fill:#8058d9;fill-rule:nonzero;"/>
        <path d="M458.668,352c-17.676,0 -32,14.328 -32,32c0,17.672 14.324,32 32,32c17.672,0 32,-14.328 32,-32c0,-17.672 -14.328,-32 -32,-32Zm0,42.668c-5.891,0 -10.668,-4.777 -10.668,-10.668c0,-5.891 4.777,-10.668 10.668,-10.668c5.891,0 10.664,4.777 10.664,10.668c0,5.891 -4.773,10.668 -10.664,10.668Z" style="fill:#8058d9;fill-rule:nonzero;"/>
        <path d="M320,458.668c0,17.672 -14.328,32 -32,32l-234.668,0c-17.672,0 -32,-14.328 -32,-32l0,-32l234.668,0l0,-21.336l-234.668,0l0,-298.664l160,0l0,-21.336l-160,0l0,-32c0,-17.672 14.328,-32 32,-32l234.668,0c17.672,0 32,14.328 32,32l0,64l21.332,0l0,-64c-0.035,-29.437 -23.891,-53.297 -53.332,-53.332l-234.668,0c-29.437,0.035 -53.297,23.895 -53.332,53.332l0,405.336c0.035,29.437 23.895,53.297 53.332,53.332l234.668,0c29.441,-0.035 53.297,-23.895 53.332,-53.332l0,-32l-21.332,0l0,32Z" style="fill:#8058d9;fill-rule:nonzero;"/>
        <rect x="138.668" y="42.668" width="64" height="21.332" style="fill:#8058d9;"/>
        <rect x="138.668" y="448" width="64" height="21.332" style="fill:#8058d9;"/>
        <rect x="96" y="170.668" width="117.332" height="21.332" style="fill:#8058d9;"/>
        <rect x="53.332" y="170.668" width="21.336" height="21.332" style="fill:#8058d9;"/>
        <rect x="138.668" y="224" width="74.664" height="21.332" style="fill:#8058d9;"/>
        <rect x="96" y="224" width="21.332" height="21.332" style="fill:#8058d9;"/>
        <rect x="96" y="277.332" width="117.332" height="21.336" style="fill:#8058d9;"/>
        <rect x="53.332" y="277.332" width="21.336" height="21.336" style="fill:#8058d9;"/>
    </g>
</svg>
