<?xml version="1.0" encoding="UTF-8" standalone="no"?>
<!DOCTYPE svg PUBLIC "-//W3C//DTD SVG 1.1//EN" "http://www.w3.org/Graphics/SVG/1.1/DTD/svg11.dtd">
<svg width="100%" height="100%" viewBox="0 0 512 512" version="1.1" xmlns="http://www.w3.org/2000/svg" xmlns:xlink="http://www.w3.org/1999/xlink" xml:space="preserve" xmlns:serif="http://www.serif.com/" style="fill-rule:evenodd;clip-rule:evenodd;stroke-linejoin:round;stroke-miterlimit:2;">
    <path d="M330.668,437.332L501.332,437.332C501.332,472.68 472.68,501.332 437.332,501.332L74.668,501.332C39.32,501.332 10.668,472.68 10.668,437.332L181.332,437.332L181.332,458.668L330.668,458.668L330.668,437.332Z" style="fill:rgb(125,210,208);fill-rule:nonzero;"/>
    <path d="M469.332,160L469.332,437.332L330.668,437.332L330.668,458.668L181.332,458.668L181.332,437.332L42.668,437.332L42.668,160C42.703,148.234 52.234,138.703 64,138.668L448,138.668C459.766,138.703 469.297,148.234 469.332,160ZM426.668,394.668L426.668,181.332L85.332,181.332L85.332,394.668L426.668,394.668Z" style="fill:white;fill-rule:nonzero;"/>
    <rect x="85.332" y="181.332" width="341.336" height="213.336" style="fill:rgb(125,210,208);fill-rule:nonzero;"/>
    <path d="M362.668,288C362.668,299.781 353.117,309.332 341.332,309.332C329.551,309.332 320,299.781 320,288C320,276.219 329.551,266.668 341.332,266.668C353.117,266.668 362.668,276.219 362.668,288Z" style="fill:white;fill-rule:nonzero;"/>
    <path d="M202.668,288C202.668,299.781 193.117,309.332 181.332,309.332C169.551,309.332 160,299.781 160,288C160,276.219 169.551,266.668 181.332,266.668C193.117,266.668 202.668,276.219 202.668,288Z" style="fill:white;fill-rule:nonzero;"/>
    <path d="M384,53.332L362.668,181.332L160,181.332L153.707,182.293L134.508,53.973L138.668,53.332L384,53.332Z" style="fill:white;fill-rule:nonzero;"/>
    <g>
        <path d="M501.332,426.668L480,426.668L480,160C480,142.328 465.672,128 448,128L405.332,128L405.332,149.332L448,149.332C453.891,149.332 458.668,154.109 458.668,160L458.668,426.668L330.668,426.668C324.777,426.668 320,431.441 320,437.332L320,448L192,448L192,437.332C192,431.441 187.223,426.668 181.332,426.668L53.332,426.668L53.332,160C53.332,154.109 58.109,149.332 64,149.332L106.668,149.332L106.668,128L64,128C46.328,128 32,142.328 32,160L32,426.668L10.668,426.668C4.777,426.668 0,431.441 0,437.332C0.047,478.551 33.449,511.953 74.668,512L437.332,512C478.551,511.953 511.953,478.551 512,437.332C512,431.441 507.223,426.668 501.332,426.668ZM437.332,490.668L74.668,490.668C49.332,490.641 27.5,472.816 22.398,448L170.668,448L170.668,458.668C170.668,464.559 175.441,469.332 181.332,469.332L330.668,469.332C336.559,469.332 341.332,464.559 341.332,458.668L341.332,448L489.602,448C484.5,472.816 462.668,490.641 437.332,490.668Z" style="fill:rgb(42,152,163);fill-rule:nonzero;"/>
        <path d="M74.668,181.332L74.668,373.332C74.668,391.008 88.992,405.332 106.668,405.332L405.332,405.332C423.008,405.332 437.332,391.008 437.332,373.332L437.332,181.332L416,181.332L416,373.332C416,379.223 411.223,384 405.332,384L106.668,384C100.777,384 96,379.223 96,373.332L96,181.332L74.668,181.332Z" style="fill:rgb(42,152,163);fill-rule:nonzero;"/>
        <path d="M149.449,225.59C150.238,230.809 154.723,234.668 160,234.668L362.668,234.668L362.668,213.332L169.172,213.332L165.973,192L362.668,192C367.879,192 372.324,188.234 373.184,183.094L394.516,55.094C395.035,52 394.164,48.836 392.141,46.441C390.113,44.047 387.137,42.668 384,42.668L143.586,42.668L138.551,9.09C137.77,3.863 133.281,0 128,0L85.332,0L85.332,21.332L118.816,21.332L149.449,225.59ZM371.402,64L353.633,170.668L162.785,170.668L146.785,64L371.402,64Z" style="fill:rgb(42,152,163);fill-rule:nonzero;"/>
        <path d="M213.332,288C213.332,270.328 199.008,256 181.332,256C163.66,256 149.332,270.328 149.332,288C149.332,305.672 163.66,320 181.332,320C199.008,320 213.332,305.672 213.332,288ZM170.668,288C170.668,282.109 175.441,277.332 181.332,277.332C187.223,277.332 192,282.109 192,288C192,293.891 187.223,298.668 181.332,298.668C175.441,298.668 170.668,293.891 170.668,288Z" style="fill:rgb(42,152,163);fill-rule:nonzero;"/>
        <path d="M373.332,288C373.332,270.328 359.008,256 341.332,256C323.66,256 309.332,270.328 309.332,288C309.332,305.672 323.66,320 341.332,320C359.008,320 373.332,305.672 373.332,288ZM330.668,288C330.668,282.109 335.441,277.332 341.332,277.332C347.223,277.332 352,282.109 352,288C352,293.891 347.223,298.668 341.332,298.668C335.441,298.668 330.668,293.891 330.668,288Z" style="fill:rgb(42,152,163);fill-rule:nonzero;"/>
    </g>
</svg>
